HIERARCHY
ROOT Hips
{
    OFFSET   0.000000   0.000000   0.000000
    CHANNELS 6 Xposition Yposition Zposition Zrotation Xrotation Yrotation
    JOINT Chest
    {
        OFFSET   0.000000   8.007240   0.000000
        CHANNELS 3 Zrotation Xrotation Yrotation
        JOINT Chest2
        {
            OFFSET   0.000000  22.077100   0.000000
            CHANNELS 3 Zrotation Xrotation Yrotation
            JOINT Neck
            {
                OFFSET   0.000000  23.254800   0.000000
                CHANNELS 3 Zrotation Xrotation Yrotation
                JOINT Head
                {
                    OFFSET   0.000000  14.370000   1.956600
                    CHANNELS 3 Zrotation Xrotation Yrotation
                    End Site
                    {
                        OFFSET   0.000000  19.566000   0.000000
                    }
                }
            }
            JOINT LeftCollar
            {
                OFFSET   3.911900  19.017000  -0.467064
                CHANNELS 3 Zrotation Xrotation Yrotation
                JOINT LeftShoulder
                {
                    OFFSET  10.383700   0.000000   0.000000
                    CHANNELS 3 Zrotation Xrotation Yrotation
                    JOINT LeftElbow
                    {
                        OFFSET  26.662100   0.001476   0.000517
                        CHANNELS 3 Zrotation Xrotation Yrotation
                        JOINT LeftWrist
                        {
                            OFFSET  28.869000  -0.000025  -0.000106
                            CHANNELS 3 Zrotation Xrotation Yrotation
                            JOINT LeftFinger0
                            {
                                OFFSET   2.044660  -2.323460   3.252850
                                CHANNELS 3 Zrotation Xrotation Yrotation
                                JOINT LeftFinger01
                                {
                                    OFFSET   3.088130   0.000000   0.000000
                                    CHANNELS 3 Zrotation Xrotation Yrotation
                                    JOINT LeftFinger02
                                    {
                                        OFFSET   2.639460   0.000000   0.000000
                                        CHANNELS 3 Zrotation Xrotation Yrotation
                                        End Site
                                        {
                                            OFFSET   2.582190   0.000000   0.000000
                                        }
                                    }
                                }
                            }
                            JOINT LeftFinger1
                            {
                                OFFSET   8.364480   0.000000   3.252850
                                CHANNELS 3 Zrotation Xrotation Yrotation
                                JOINT LeftFinger11
                                {
                                    OFFSET   4.646930   0.000000   0.000000
                                    CHANNELS 3 Zrotation Xrotation Yrotation
                                    JOINT LeftFinger12
                                    {
                                        OFFSET   2.323460   0.000000   0.000000
                                        CHANNELS 3 Zrotation Xrotation Yrotation
                                        End Site
                                        {
                                            OFFSET   2.273050   0.000000   0.000000
                                        }
                                    }
                                }
                            }
                            JOINT LeftFinger2
                            {
                                OFFSET   8.364490   0.000015   1.078090
                                CHANNELS 3 Zrotation Xrotation Yrotation
                                JOINT LeftFinger21
                                {
                                    OFFSET   5.111620   0.000000   0.000000
                                    CHANNELS 3 Zrotation Xrotation Yrotation
                                    JOINT LeftFinger22
                                    {
                                        OFFSET   2.788160   0.000016   0.000000
                                        CHANNELS 3 Zrotation Xrotation Yrotation
                                        End Site
                                        {
                                            OFFSET   2.727660   0.000000   0.000000
                                        }
                                    }
                                }
                            }
                            JOINT LeftFinger3
                            {
                                OFFSET   7.899780   0.000017  -1.078090
                                CHANNELS 3 Zrotation Xrotation Yrotation
                                JOINT LeftFinger31
                                {
                                    OFFSET   4.646930   0.000000   0.000000
                                    CHANNELS 3 Zrotation Xrotation Yrotation
                                    JOINT LeftFinger32
                                    {
                                        OFFSET   2.323470   0.000000   0.000000
                                        CHANNELS 3 Zrotation Xrotation Yrotation
                                        End Site
                                        {
                                            OFFSET   2.273050   0.000000   0.000000
                                        }
                                    }
                                }
                            }
                            JOINT LeftFinger4
                            {
                                OFFSET   7.435090   0.000000  -3.252850
                                CHANNELS 3 Zrotation Xrotation Yrotation
                                JOINT LeftFinger41
                                {
                                    OFFSET   3.717550   0.000000   0.000000
                                    CHANNELS 3 Zrotation Xrotation Yrotation
                                    JOINT LeftFinger42
                                    {
                                        OFFSET   1.858770   0.000000   0.000000
                                        CHANNELS 3 Zrotation Xrotation Yrotation
                                        End Site
                                        {
                                            OFFSET   1.818440   0.000000   0.000000
                                        }
                                    }
                                }
                            }
                        }
                    }
                }
            }
            JOINT RightCollar
            {
                OFFSET  -3.911900  19.017000  -0.467063
                CHANNELS 3 Zrotation Xrotation Yrotation
                JOINT RightShoulder
                {
                    OFFSET -10.383700   0.000019   0.000000
                    CHANNELS 3 Zrotation Xrotation Yrotation
                    JOINT RightElbow
                    {
                        OFFSET -26.662100   0.001175   0.000102
                        CHANNELS 3 Zrotation Xrotation Yrotation
                        JOINT RightWrist
                        {
                            OFFSET -28.869000   0.000016  -0.000079
                            CHANNELS 3 Zrotation Xrotation Yrotation
                            JOINT RightFinger0
                            {
                                OFFSET  -2.044660  -2.323490   3.252850
                                CHANNELS 3 Zrotation Xrotation Yrotation
                                JOINT RightFinger01
                                {
                                    OFFSET  -3.088140   0.000000   0.000000
                                    CHANNELS 3 Zrotation Xrotation Yrotation
                                    JOINT RightFinger02
                                    {
                                        OFFSET  -2.639460   0.000000   0.000000
                                        CHANNELS 3 Zrotation Xrotation Yrotation
                                        End Site
                                        {
                                            OFFSET  -2.582190   0.000000   0.000000
                                        }
                                    }
                                }
                            }
                            JOINT RightFinger1
                            {
                                OFFSET  -8.364480   0.000000   3.252850
                                CHANNELS 3 Zrotation Xrotation Yrotation
                                JOINT RightFinger11
                                {
                                    OFFSET  -4.646930   0.000000   0.000000
                                    CHANNELS 3 Zrotation Xrotation Yrotation
                                    JOINT RightFinger12
                                    {
                                        OFFSET  -2.323470   0.000000   0.000000
                                        CHANNELS 3 Zrotation Xrotation Yrotation
                                        End Site
                                        {
                                            OFFSET  -2.273050   0.000000   0.000000
                                        }
                                    }
                                }
                            }
                            JOINT RightFinger2
                            {
                                OFFSET  -8.364480   0.000000   1.078090
                                CHANNELS 3 Zrotation Xrotation Yrotation
                                JOINT RightFinger21
                                {
                                    OFFSET  -5.111620   0.000000   0.000000
                                    CHANNELS 3 Zrotation Xrotation Yrotation
                                    JOINT RightFinger22
                                    {
                                        OFFSET  -2.788160   0.000000   0.000000
                                        CHANNELS 3 Zrotation Xrotation Yrotation
                                        End Site
                                        {
                                            OFFSET  -2.727660   0.000000   0.000000
                                        }
                                    }
                                }
                            }
                            JOINT RightFinger3
                            {
                                OFFSET  -7.899780   0.000000  -1.078090
                                CHANNELS 3 Zrotation Xrotation Yrotation
                                JOINT RightFinger31
                                {
                                    OFFSET  -4.646930   0.000000   0.000000
                                    CHANNELS 3 Zrotation Xrotation Yrotation
                                    JOINT RightFinger32
                                    {
                                        OFFSET  -2.323470   0.000000   0.000000
                                        CHANNELS 3 Zrotation Xrotation Yrotation
                                        End Site
                                        {
                                            OFFSET  -2.273050   0.000000   0.000000
                                        }
                                    }
                                }
                            }
                            JOINT RightFinger4
                            {
                                OFFSET  -7.435090   0.000000  -3.252850
                                CHANNELS 3 Zrotation Xrotation Yrotation
                                JOINT RightFinger41
                                {
                                    OFFSET  -3.717550   0.000000   0.000000
                                    CHANNELS 3 Zrotation Xrotation Yrotation
                                    JOINT RightFinger42
                                    {
                                        OFFSET  -1.858770   0.000000   0.000000
                                        CHANNELS 3 Zrotation Xrotation Yrotation
                                        End Site
                                        {
                                            OFFSET  -1.818440   0.000000   0.000000
                                        }
                                    }
                                }
                            }
                        }
                    }
                }
            }
        }
    }
    JOINT LeftHip
    {
        OFFSET   9.783040   0.000000   0.000000
        CHANNELS 3 Zrotation Xrotation Yrotation
        JOINT LeftKnee
        {
            OFFSET   0.000032 -41.789100  -0.002222
            CHANNELS 3 Zrotation Xrotation Yrotation
            JOINT LeftAnkle
            {
                OFFSET   0.000087 -41.133200  -0.000135
                CHANNELS 3 Zrotation Xrotation Yrotation
                JOINT LeftToe
                {
                    OFFSET   0.000000  -6.358960  14.674500
                    CHANNELS 3 Zrotation Xrotation Yrotation
                    End Site
                    {
                        OFFSET   0.000000   0.000000   3.913200
                    }
                }
            }
        }
    }
    JOINT RightHip
    {
        OFFSET  -9.783040   0.000000   0.000000
        CHANNELS 3 Zrotation Xrotation Yrotation
        JOINT RightKnee
        {
            OFFSET   0.000047 -41.789100  -0.000896
            CHANNELS 3 Zrotation Xrotation Yrotation
            JOINT RightAnkle
            {
                OFFSET  -0.000117 -41.133300  -0.000248
                CHANNELS 3 Zrotation Xrotation Yrotation
                JOINT RightToe
                {
                    OFFSET   0.000000  -6.358970  14.674500
                    CHANNELS 3 Zrotation Xrotation Yrotation
                    End Site
                    {
                        OFFSET   0.000000   0.000000   3.913200
                    }
                }
            }
        }
    }
}
MOTION
Frames: 4
Frame Time:   0.016667
 -6.899790  89.077600   2.518260  -1.430350  -9.397220  -5.440870   3.087030   8.721320  -2.149120   6.622490  17.304800  -4.860590   3.006050   0.265987  -0.013789   4.938930   0.534675  14.467100  -3.783940   2.804150   8.415530 -77.291700  15.955100  -6.709210   0.561644   2.960710 -21.646500   9.663310  -4.342140  -2.202440  39.616900  34.779500 -52.231100 -34.436000  -0.000759   0.001700 -12.217900   0.004967   0.000000 -36.886300   0.044320  -0.059068 -30.179700  -0.005987   0.003745 -21.126600  -0.005923  -0.006880 -33.258700  -3.652970   5.550260 -50.153900  -0.005817  -0.003616 -33.402400  -0.005057  -0.005858 -28.772700  -4.099760   7.418710 -43.558100  -0.005624   0.000000 -29.009700   0.001267  -0.001577 -36.885800  -7.178750   9.456810 -56.220900   0.000940  -0.000941 -37.443100   0.002997  -0.003822   1.336570   2.687070   8.681190  35.219100 -39.745600  23.957100 -13.482600  -3.121280  23.677800 -30.762600 -12.916400  14.105700 -51.038700  36.331000  70.983900  17.077900   0.000075  -0.000000   3.538930  -0.001757   0.000275  23.538300   2.489950   5.665760  19.355100  -0.007236   0.001568  13.548600   0.001318   0.002291  21.511800   0.055744   0.136386  21.511600  -0.000999   0.002961  14.326800  -0.001387  -0.001459  24.732500  -1.665340  -3.634420  24.786200  -0.001860   0.001737  16.507600  -0.002214   0.001104  24.864100  -3.606100  -7.715760  37.660800  -0.000472   0.001593  25.082100  -0.001929  -0.000170   6.208530  12.035500  -0.007652   1.145560   4.827600  16.395400  -8.209790  -5.085280  -2.195690   0.000000   0.000000  -0.000000   0.938545  13.446400  -7.603310   1.460590   0.860390  -7.133870   0.015855  -4.091440   6.346120   0.000000   0.000000  -0.000000
 -6.921890  89.071700   2.562640  -1.409620  -9.352160  -5.389400   3.068570   8.676960  -2.159170   6.583720  17.216500  -4.875470   2.933310   0.191021  -0.009720   4.819390   0.384060  14.678600  -3.798710   2.827470   8.387730 -77.285500  15.850500  -6.664720   0.560792   2.949920 -21.725200   9.662590  -4.379230  -2.211630  39.634300  34.798400 -52.252200 -34.427400  -0.000759   0.001700 -12.213700   0.004966  -0.000000 -36.903300   0.050215  -0.066867 -30.193600  -0.005988   0.003741 -21.135500  -0.005924  -0.006879 -33.271900  -3.653000   5.545940 -50.173400  -0.005816  -0.003617 -33.415400  -0.005057  -0.005859 -28.781000  -4.099430   7.414690 -43.570000  -0.005624  -0.000000 -29.017600   0.001268  -0.001580 -36.903600  -7.178680   9.448280 -56.246400   0.000941  -0.000944 -37.460100   0.002995  -0.003822   1.284570   2.703170   8.722670  35.021000 -40.547100  23.709200 -13.480400  -3.381220  23.541200 -31.266200 -13.022500  13.893000 -51.066200  36.478800  71.516600  17.153500   0.000076   0.000000   3.576760  -0.001840   0.000232  23.493700   2.434030   5.582050  19.319200  -0.007106   0.001794  13.523400   0.001327   0.002310  21.570500  -0.035434  -0.092964  21.570500  -0.000824   0.003081  14.366000  -0.001359  -0.001427  24.608100  -1.785030  -3.892050  24.668900  -0.001871   0.001978  16.429500  -0.002176   0.001231  25.069500  -3.635520  -7.718070  37.972100  -0.000340   0.001717  25.289400  -0.001843  -0.000078   6.212560  12.002600  -0.007251   1.148480   4.845260  16.357500  -8.241690  -5.080580  -2.206620  -0.000000   0.000000   0.000000   0.939212  13.442600  -7.627780   1.494400   0.838462  -7.233460  -0.003285  -4.111820   6.412040   0.000000   0.000000   0.000000
 -6.943560  89.066200   2.606920  -1.390450  -9.314280  -5.317450   3.049840   8.627630  -2.175170   6.544710  17.117900  -4.901230   2.861160   0.131145  -0.007420   4.700670   0.263620  14.860500  -3.813310   2.860720   8.352590 -77.270700  15.758800  -6.621600   0.553354   2.922210 -21.808000   9.649310  -4.391480  -2.221440  39.670100  34.847500 -52.285900 -34.410300  -0.000767   0.001711 -12.205200   0.004967   0.000000 -36.906900   0.063419  -0.084429 -30.196500  -0.005990   0.003738 -21.134600  -0.005923  -0.006878 -33.271500  -3.653010   5.544250 -50.172600  -0.005818  -0.003615 -33.414900  -0.005058  -0.005858 -28.782100  -4.092490   7.400340 -43.568200  -0.005628   0.000000 -29.016400   0.001269  -0.001580 -36.903100  -7.169340   9.433360 -56.244500   0.000942  -0.000944 -37.458100   0.002995  -0.003824   1.240590   2.747110   8.770740  34.879600 -41.432500  23.502300 -13.499900  -3.582910  23.558700 -31.778200 -12.919200  13.701700 -51.324300  36.717500  72.345300  16.944900   0.000073   0.000038   3.472450  -0.001928   0.000133  23.151800   2.389380   5.587690  19.040400  -0.006967   0.002029  13.328200   0.001326   0.002345  21.492200  -0.065902  -0.169683  21.492100  -0.000659   0.003195  14.313700  -0.001336  -0.001403  24.727400  -1.798670  -3.886130  24.788500  -0.001878   0.002217  16.509200  -0.002145   0.001360  25.176500  -3.631440  -7.684470  38.130900  -0.000229   0.001861  25.395200  -0.001758   0.000013   6.218960  11.967900  -0.007136   1.152220   4.873100  16.297800  -8.269300  -5.080960  -2.215110  -0.000000   0.000000  -0.000000   0.941806  13.431100  -7.648800   1.523280   0.835051  -7.348360  -0.019414  -4.135600   6.468030   0.000000   0.000000   0.000000
 -6.962270  89.060700   2.651680  -1.371280  -9.279030  -5.232800   3.030420   8.574330  -2.195630   6.504730  17.011200  -4.935660   2.786980   0.083804  -0.006364   4.578590   0.168305  15.023800  -3.823610   2.901560   8.317840 -77.256000  15.672600  -6.583940   0.548895   2.901570 -21.890500   9.636440  -4.396170  -2.229730  39.714300  34.900400 -52.315800 -34.391100  -0.000776   0.001722 -12.195500   0.004969  -0.000000 -36.907400   0.077199  -0.102778 -30.196900  -0.005992   0.003736 -21.132800  -0.005923  -0.006878 -33.271100  -3.653020   5.543490 -50.171800  -0.005819  -0.003612 -33.414400  -0.005058  -0.005857 -28.784000  -4.080890   7.381600 -43.566300  -0.005631   0.000000 -29.015100   0.001271  -0.001579 -36.903700  -7.154500   9.416710 -56.242600   0.000944  -0.000944 -37.456100   0.002996  -0.003826   1.203960   2.806910   8.813260  34.787300 -42.327700  23.336400 -13.600300  -3.688390  23.646500 -32.424900 -12.556000  13.492900 -51.644000  37.010400  73.248300  16.736300   0.000060   0.000078   3.368140  -0.002010  -0.000000  22.655400   2.343270   5.593320  18.629500  -0.006825   0.002264  13.040700   0.001323   0.002381  21.347900  -0.075577  -0.194012  21.347700  -0.000496   0.003303  14.217600  -0.001314  -0.001378  24.904400  -1.804360  -3.880190  24.965300  -0.001884   0.002462  16.626900  -0.002117   0.001495  25.259100  -3.612440  -7.600590  38.249600  -0.000125   0.002009  25.474300  -0.001671   0.000109   6.225190  11.930900  -0.007119   1.155960   4.905200  16.228700  -8.293740  -5.083780  -2.225250  -0.000000   0.000000  -0.000000   0.943893  13.422800  -7.665990   1.553530   0.831620  -7.473150  -0.033899  -4.160170   6.518230  -0.000000   0.000000   0.000000
